<svg width="114" height="15" viewBox="0 0 114 15" fill="none" xmlns="http://www.w3.org/2000/svg">
<rect x="0.000488281" y="7.28772" width="32" height="0.781908" rx="0.390954" fill="#E3B873"/>
<rect x="82.0005" y="7.28772" width="32" height="0.781908" rx="0.390954" fill="#E3B873"/>
<path d="M64.8924 11.7664C64.1458 12.121 64.1458 12.7121 64.8924 13.0904C65.2658 13.2796 65.7324 13.3741 66.1991 13.3741C66.6657 13.3741 67.1324 13.2796 67.5057 13.0904C68.2524 12.7358 68.2524 12.1447 67.5057 11.7664C66.8058 11.3881 65.6391 11.3881 64.8924 11.7664ZM66.8524 12.783C66.4791 12.9722 65.9191 12.9722 65.5458 12.783C65.1725 12.5939 65.1724 12.3102 65.5458 12.121C65.7324 12.0265 65.9658 11.9792 66.1991 11.9792C66.4325 11.9792 66.6658 12.0265 66.8525 12.121C67.2258 12.3102 67.2258 12.5939 66.8524 12.783Z" fill="#E3B873"/>
<path d="M70.6797 12.0501L62.2796 7.79436L65.593 6.11571L65.5931 6.11568L67.553 5.12271L67.5531 5.12268L70.3997 3.68051C71.193 3.27857 71.193 2.61658 70.3997 2.21464L68.0197 1.00886C67.6464 0.819731 67.133 0.701508 66.573 0.701508C66.013 0.701508 65.4996 0.819731 65.1264 1.00886L62.2797 2.45106L60.3197 3.44406L57.0064 5.12271L48.6996 0.914293C48.1863 0.654213 47.253 0.654213 46.7396 0.914293L43.4263 2.59294C42.8663 2.85303 42.8663 3.30223 43.4263 3.58594L44.4063 4.08244L47.0663 5.43009L49.6796 6.75407C49.6796 6.75407 49.6796 6.75407 49.6797 6.7541L51.733 7.79436L44.2416 11.5898C44.1019 11.621 44.0266 11.6848 43.9863 11.7664L43.0063 14.6035C43.0063 14.6981 43.053 14.769 43.1463 14.8163C43.2396 14.8636 43.333 14.8872 43.473 14.8872C43.5196 14.8872 43.5196 14.8872 43.5663 14.8872L48.9501 14.383C48.9873 14.3879 49.0275 14.3907 49.073 14.3907C49.213 14.3907 49.353 14.3671 49.3996 14.3198L57.0063 10.466L57.6129 10.7734C57.6129 10.7734 57.6129 10.7734 57.613 10.7734L57.6131 10.7734L58.9196 11.4354C58.9196 11.4354 58.9196 11.4354 58.9197 11.4354L58.9198 11.4354L65.4064 14.7218C65.6397 14.84 65.9197 14.8872 66.1997 14.8872C66.4797 14.8872 66.7597 14.84 66.9464 14.7218L70.6797 12.8303C71.0997 12.6175 71.0997 12.2629 70.6797 12.0501ZM49.073 13.7997L47.4401 12.9724L62.9559 5.13429L64.5664 5.95022L49.073 13.7997ZM65.7796 1.33986C66.1996 1.12708 66.9463 1.12708 67.3663 1.33986L69.7463 2.54565C70.1663 2.75844 70.1663 3.13671 69.7463 3.3495L67.2263 4.62621L63.2596 2.61658L65.7796 1.33986ZM62.6064 2.94759L64.5897 3.95242L66.573 4.95722L65.2664 5.61921L61.2997 3.60958L62.6064 2.94759ZM51.9896 7.2624L52.993 6.75407C53.1796 6.65951 53.1796 6.51765 52.993 6.42306C52.8064 6.32847 52.5263 6.3285 52.3396 6.42306L51.3363 6.93139L50.6596 6.58858L52.293 5.76107C52.4796 5.66651 52.4796 5.52465 52.293 5.43006C52.1063 5.33547 51.8264 5.3355 51.6396 5.43006L50.0063 6.25757L49.3529 5.92656L50.3329 5.43006C50.5196 5.3355 50.5196 5.19364 50.3329 5.09905C50.1463 5.00446 49.8663 5.00449 49.6796 5.09905L48.6996 5.59555L48.0462 5.26454L49.6796 4.43703C49.8662 4.34247 49.8662 4.20061 49.6796 4.10602C49.4929 4.01143 49.2129 4.01146 49.0262 4.10602L47.393 4.93359L46.693 4.57894L47.673 4.08244C47.8596 3.98788 47.8596 3.84603 47.673 3.75144C47.4863 3.65685 47.2063 3.65687 47.0196 3.75144L46.0396 4.24794L45.3863 3.91693L47.0196 3.08942C47.2063 2.99485 47.2063 2.853 47.0196 2.75841C46.833 2.66382 46.553 2.66385 46.3663 2.75841L44.733 3.58594L44.0796 3.25494C43.893 3.16037 43.893 3.01852 44.0796 2.92393L47.393 1.2453C47.4863 1.19801 47.5796 1.17437 47.7196 1.17437C47.813 1.17437 47.953 1.19801 48.0463 1.2453L56.353 5.45372L52.3863 7.46335L51.9896 7.2624ZM60.6464 3.96422L62.2792 4.79148L46.7635 12.6296L45.153 11.8137L60.6464 3.96422ZM44.7796 12.2865L46.3107 13.0622C46.334 13.0892 46.3679 13.1148 46.413 13.1376L48.0999 13.9922L44.0797 14.3434L44.7796 12.2865ZM70.0264 12.4993L66.293 14.3907C66.2464 14.4144 66.1064 14.4144 66.0597 14.3907L61.2296 11.9437L62.8863 11.1044C63.0729 11.0098 63.0729 10.868 62.8863 10.7734C62.6996 10.6788 62.4196 10.6788 62.2329 10.7734L60.5763 11.6127L59.8996 11.2699L60.8796 10.7734C61.0663 10.6788 61.0663 10.5369 60.8796 10.4424C60.693 10.3478 60.413 10.3478 60.2263 10.4424L59.2463 10.9389L58.5929 10.6078L60.2263 9.78033C60.4129 9.68577 60.4129 9.54392 60.2263 9.44933C60.0396 9.35476 59.7596 9.35476 59.5729 9.44933L57.9396 10.2769L57.6596 10.135L61.6263 8.12537L70.0263 12.3811C70.073 12.4047 70.073 12.4756 70.0264 12.4993Z" fill="#E3B873"/>
</svg>
